HIERARCHY
ROOT Joint1
{
	OFFSET 0.000000 0.000000 0.000000
	CHANNELS 6 Xposition Yposition Zposition Xrotation Yrotation Zrotation
	JOINT Joint2
	{
		OFFSET -0.000000 0.000000 1.456275
		CHANNELS 6 Xposition Yposition Zposition Xrotation Yrotation Zrotation
		JOINT Joint3
		{
			OFFSET -0.000000 0.000002 1.471446
			CHANNELS 6 Xposition Yposition Zposition Xrotation Yrotation Zrotation
			JOINT Joint4
			{
				OFFSET 0.625745 0.000000 0.917755
				CHANNELS 6 Xposition Yposition Zposition Xrotation Yrotation Zrotation
				JOINT Joint5
				{
					OFFSET -0.629534 0.000001 0.940221
					CHANNELS 6 Xposition Yposition Zposition Xrotation Yrotation Zrotation
					JOINT Joint6
					{
						OFFSET -0.000001 0.113772 1.960660
						CHANNELS 6 Xposition Yposition Zposition Xrotation Yrotation Zrotation
						JOINT Joint7
						{
							OFFSET -0.669733 -0.113771 0.388340
							CHANNELS 6 Xposition Yposition Zposition Xrotation Yrotation Zrotation
							End Site
							{
								OFFSET 0.005509 0.005509 0.438980
							}
						}
					}
				}
			}
		}
	}
}
MOTION
Frames: 9
Frame Time: 0.041667
0.000000 0.000000 0.000000 -0.000000 1.019410 74.459061 -0.000000 -0.000000 1.456275 0.000001 -40.419376 -0.000001 -0.000000 0.000002 1.471445 -0.000001 -1.133465 -46.253747 0.625745 0.000000 0.917755 0.000014 117.397988 -0.000002 -0.629533 0.000001 0.940221 -0.000005 1.709739 0.953784 -0.000000 0.113772 1.960661 -88.303930 89.149050 -0.000092 -0.669733 -0.113771 0.388340 -0.053279 3.329906 95.121053 
0.000000 0.000000 0.000000 -0.000000 1.019410 76.056369 -0.000000 0.000000 1.456275 0.000000 -40.321537 -0.000000 -0.000000 0.000002 1.471446 -0.000002 -1.133464 -47.245330 0.625745 0.000000 0.917755 0.000002 117.020019 0.000002 -0.629534 0.000001 0.940221 0.000001 1.709736 0.974458 -0.000001 0.113772 1.960660 -88.303998 89.131237 -0.000123 -0.669733 -0.113771 0.388339 -0.041704 3.320101 94.266562 
0.000000 0.000000 0.000000 -0.000000 1.019410 77.821270 -0.000000 0.000000 1.456275 -0.000000 -40.213439 0.000000 -0.000000 0.000002 1.471446 -0.000003 -1.133462 -48.340940 0.625745 0.000000 0.917755 0.000009 116.602421 0.000006 -0.629534 0.000001 0.940221 0.000001 1.709737 0.997302 -0.000001 0.113772 1.960660 -88.303950 89.111552 -0.000128 -0.669733 -0.113771 0.388341 -0.029088 3.309076 93.322425 
0.000000 0.000000 0.000000 -0.000000 1.019410 79.716900 -0.000000 0.000000 1.456275 -0.000000 -40.097329 -0.000000 -0.000000 0.000002 1.471446 -0.000002 -1.133464 -49.517717 0.625745 0.000000 0.917755 -0.000005 116.153842 0.000002 -0.629534 0.000001 0.940221 0.000000 1.709735 1.021838 -0.000001 0.113772 1.960660 -88.304101 89.090406 -0.000147 -0.669733 -0.113771 0.388340 -0.015739 3.296999 92.308361 
0.000000 0.000000 0.000000 -0.000000 1.019410 81.683817 -0.000000 0.000000 1.456275 0.000000 -39.976855 -0.000000 -0.000000 0.000002 1.471446 -0.000002 -1.133467 -50.738740 0.625745 0.000001 0.917755 -0.000002 115.688433 0.000002 -0.629533 0.000001 0.940221 -0.000002 1.709736 1.047293 -0.000001 0.113772 1.960660 -88.304210 89.068481 -0.000107 -0.669733 -0.113771 0.388340 -0.002120 3.284221 91.256184 
0.000000 0.000000 0.000000 -0.000000 1.019410 83.662611 -0.000000 0.000000 1.456275 0.000000 -39.855656 -0.000001 -0.000001 0.000002 1.471446 -0.000002 -1.133464 -51.967132 0.625745 0.000000 0.917755 0.000010 115.220210 -0.000004 -0.629533 0.000001 0.940220 -0.000005 1.709739 1.072907 -0.000001 0.113772 1.960660 -88.304012 89.046412 -0.000182 -0.669734 -0.113771 0.388340 0.011346 3.271115 90.197668 
0.000000 0.000000 0.000000 -0.000000 1.019410 85.605732 -0.000000 -0.000000 1.456275 -0.000000 -39.736640 0.000000 -0.000000 0.000002 1.471446 -0.000002 -1.133461 -53.173385 0.625745 0.000000 0.917755 -0.000006 114.760415 0.000002 -0.629534 0.000001 0.940220 -0.000001 1.709736 1.098059 -0.000001 0.113772 1.960660 -88.304121 89.024733 -0.000040 -0.669733 -0.113771 0.388340 0.024327 3.258007 89.158257 
0.000000 0.000000 0.000000 -0.000000 1.019410 87.513185 -0.000000 0.000000 1.456275 -0.000000 -39.619800 0.000000 -0.000000 0.000002 1.471446 -0.000002 -1.133466 -54.357497 0.625745 0.000000 0.917755 0.000003 114.309056 0.000006 -0.629533 0.000001 0.940221 -0.000002 1.709739 1.122746 -0.000001 0.113772 1.960661 -88.304019 89.003464 -0.000033 -0.669733 -0.113771 0.388340 0.036837 3.244913 88.137936 
0.000000 0.000000 0.000000 -0.000000 1.019410 89.396924 -0.000000 0.000000 1.456275 -0.000000 -39.504424 0.000000 -0.000000 0.000002 1.471446 -0.000002 -1.133466 -55.526883 0.625745 0.000000 0.917755 0.000002 113.863317 0.000002 -0.629534 0.000001 0.940221 -0.000003 1.709736 1.147131 -0.000000 0.113772 1.960661 -88.304032 88.982461 -0.000068 -0.669733 -0.113771 0.388339 0.048965 3.231768 87.130312 
